<?xml version="1.0" encoding="UTF-8"?><svg id="Layer_2" xmlns="http://www.w3.org/2000/svg" viewBox="0 0 295.55 39.5"><defs><style>.cls-1{fill:#d1ffd7;stroke:#d1ffd7;stroke-miterlimit:10;stroke-width:2px;}</style></defs><g id="Layer_1-2"><g><path class="cls-1" d="m4.05,8.75c-.87,0-1.59-.27-2.17-.8-.58-.53-.88-1.23-.88-2.1s.29-1.56.88-2.08c.58-.52,1.31-.77,2.17-.77h22.2c.87,0,1.59.27,2.17.8.58.53.88,1.23.88,2.1s-.29,1.56-.88,2.08c-.58.52-1.31.77-2.17.77H4.05Zm11.05,29.25c-.93,0-1.7-.29-2.3-.88-.6-.58-.9-1.31-.9-2.17V5.95h6.5v29c0,.87-.31,1.59-.92,2.17-.62.58-1.41.88-2.38.88Z"/><path class="cls-1" d="m49.6,10.75c2.4,0,4.23.52,5.48,1.55,1.25,1.03,2.11,2.41,2.58,4.12.47,1.72.7,3.62.7,5.73v12.8c0,.87-.28,1.59-.85,2.17-.57.58-1.28.88-2.15.88s-1.58-.29-2.15-.88c-.57-.58-.85-1.31-.85-2.17v-12.8c0-1.1-.13-2.09-.4-2.98-.27-.88-.75-1.59-1.45-2.12-.7-.53-1.7-.8-3-.8s-2.35.27-3.25.8c-.9.53-1.58,1.24-2.03,2.12-.45.88-.67,1.88-.67,2.98v12.8c0,.87-.28,1.59-.85,2.17-.57.58-1.28.88-2.15.88s-1.58-.29-2.15-.88c-.57-.58-.85-1.31-.85-2.17V4.05c0-.87.28-1.59.85-2.17.57-.58,1.28-.88,2.15-.88s1.58.29,2.15.88c.57.58.85,1.31.85,2.17v12.4l-.75-.15c.3-.57.72-1.17,1.25-1.82.53-.65,1.18-1.26,1.95-1.83.77-.57,1.62-1.02,2.55-1.38.93-.35,1.95-.52,3.05-.52Z"/><path class="cls-1" d="m78.95,38.5c-2.83,0-5.29-.59-7.38-1.77-2.08-1.18-3.68-2.79-4.8-4.83-1.12-2.03-1.67-4.33-1.67-6.9,0-3,.61-5.56,1.83-7.67,1.22-2.12,2.81-3.74,4.77-4.88,1.97-1.13,4.05-1.7,6.25-1.7,1.7,0,3.31.35,4.82,1.05,1.52.7,2.86,1.66,4.03,2.88,1.17,1.22,2.09,2.62,2.77,4.23.68,1.6,1.02,3.3,1.02,5.1-.03.8-.35,1.45-.95,1.95-.6.5-1.3.75-2.1.75h-19.1l-1.5-5h18.35l-1.1,1v-1.35c-.07-.97-.41-1.83-1.02-2.6-.62-.77-1.38-1.38-2.3-1.83-.92-.45-1.89-.67-2.92-.67s-1.93.13-2.8.4c-.87.27-1.62.72-2.25,1.35-.63.63-1.13,1.48-1.5,2.55-.37,1.07-.55,2.42-.55,4.05,0,1.8.38,3.32,1.12,4.57s1.72,2.2,2.9,2.85c1.18.65,2.44.98,3.77.98,1.23,0,2.22-.1,2.95-.3.73-.2,1.33-.44,1.77-.73.45-.28.86-.52,1.23-.73.6-.3,1.17-.45,1.7-.45.73,0,1.34.25,1.82.75.48.5.73,1.08.73,1.75,0,.9-.47,1.72-1.4,2.45-.87.73-2.08,1.38-3.65,1.92-1.57.55-3.18.83-4.85.83Z"/><path class="cls-1" d="m100.35,38c-.87,0-1.58-.29-2.15-.88-.57-.58-.85-1.31-.85-2.17V14.3c0-.87.28-1.59.85-2.17.57-.58,1.28-.88,2.15-.88s1.58.29,2.15.88c.57.58.85,1.31.85,2.17v4.7l-.35-3.35c.37-.8.84-1.51,1.43-2.12.58-.62,1.24-1.13,1.97-1.55.73-.42,1.52-.73,2.35-.93.83-.2,1.67-.3,2.5-.3,1,0,1.84.28,2.52.85.68.57,1.03,1.23,1.03,2,0,1.1-.28,1.89-.85,2.38-.57.48-1.18.73-1.85.73s-1.21-.12-1.73-.35c-.52-.23-1.11-.35-1.77-.35-.6,0-1.21.14-1.83.42-.62.28-1.18.73-1.7,1.33-.52.6-.93,1.34-1.25,2.23-.32.88-.48,1.92-.48,3.12v11.85c0,.87-.28,1.59-.85,2.17-.57.58-1.28.88-2.15.88Z"/><path class="cls-1" d="m134.6,10.75c2.67,0,4.63.64,5.9,1.92,1.27,1.28,2.1,2.94,2.5,4.98l-.85-.45.4-.8c.4-.77,1.02-1.59,1.85-2.48.83-.88,1.84-1.63,3.03-2.25,1.18-.62,2.51-.92,3.97-.92,2.4,0,4.23.52,5.48,1.55,1.25,1.03,2.11,2.41,2.58,4.12.47,1.72.7,3.62.7,5.73v12.8c0,.87-.28,1.59-.85,2.17-.57.58-1.28.88-2.15.88s-1.58-.29-2.15-.88c-.57-.58-.85-1.31-.85-2.17v-12.8c0-1.1-.13-2.09-.4-2.98-.27-.88-.75-1.59-1.45-2.12-.7-.53-1.7-.8-3-.8s-2.35.27-3.25.8c-.9.53-1.58,1.24-2.03,2.12-.45.88-.67,1.88-.67,2.98v12.8c0,.87-.28,1.59-.85,2.17-.57.58-1.28.88-2.15.88s-1.58-.29-2.15-.88c-.57-.58-.85-1.31-.85-2.17v-12.8c0-1.1-.13-2.09-.4-2.98-.27-.88-.75-1.59-1.45-2.12-.7-.53-1.7-.8-3-.8s-2.35.27-3.25.8c-.9.53-1.58,1.24-2.03,2.12-.45.88-.67,1.88-.67,2.98v12.8c0,.87-.28,1.59-.85,2.17-.57.58-1.28.88-2.15.88s-1.58-.29-2.15-.88c-.57-.58-.85-1.31-.85-2.17V14.3c0-.87.28-1.59.85-2.17.57-.58,1.28-.88,2.15-.88s1.58.29,2.15.88c.57.58.85,1.31.85,2.17v2.15l-.75-.15c.3-.57.72-1.17,1.25-1.82s1.18-1.26,1.95-1.83c.77-.57,1.62-1.02,2.55-1.38.93-.35,1.95-.52,3.05-.52Z"/><path class="cls-1" d="m166.6,33.85c-.33-.47-.48-1.07-.45-1.8.03-.73.47-1.37,1.3-1.9.53-.33,1.1-.48,1.7-.42.6.05,1.18.36,1.75.92.97.97,1.98,1.72,3.05,2.25,1.07.53,2.4.8,4,.8.5-.03,1.05-.11,1.65-.23.6-.12,1.12-.38,1.58-.8.45-.42.67-1.06.67-1.92,0-.73-.25-1.32-.75-1.75-.5-.43-1.16-.8-1.98-1.1-.82-.3-1.72-.58-2.72-.85-1.03-.3-2.09-.63-3.17-1-1.08-.37-2.08-.84-2.98-1.42-.9-.58-1.63-1.36-2.2-2.33-.57-.97-.85-2.18-.85-3.65,0-1.67.47-3.08,1.4-4.25.93-1.17,2.14-2.07,3.62-2.7,1.48-.63,3.04-.95,4.67-.95,1.03,0,2.12.12,3.25.38,1.13.25,2.22.65,3.25,1.2,1.03.55,1.9,1.27,2.6,2.17.37.5.58,1.1.65,1.8.07.7-.25,1.33-.95,1.9-.5.4-1.08.57-1.75.52-.67-.05-1.22-.27-1.65-.68-.57-.73-1.33-1.32-2.28-1.75-.95-.43-2.04-.65-3.28-.65-.5,0-1.04.06-1.62.18-.58.12-1.09.37-1.52.75-.43.38-.65.99-.65,1.82,0,.77.25,1.38.75,1.83.5.45,1.17.82,2.03,1.1.85.28,1.76.56,2.72.82,1,.27,2.02.58,3.05.95,1.03.37,1.98.85,2.85,1.45.87.6,1.57,1.38,2.1,2.33.53.95.8,2.16.8,3.62,0,1.7-.5,3.15-1.5,4.35-1,1.2-2.25,2.11-3.75,2.73-1.5.62-3.03.92-4.6.92-1.97,0-3.93-.34-5.9-1.02-1.97-.68-3.6-1.89-4.9-3.62Z"/><path class="cls-1" d="m194.05,11.75h11.85c.8,0,1.47.27,2,.8.53.53.8,1.2.8,2s-.27,1.41-.8,1.93c-.53.52-1.2.77-2,.77h-11.85c-.8,0-1.47-.27-2-.8s-.8-1.2-.8-2,.27-1.41.8-1.93c.53-.52,1.2-.77,2-.77Zm5.35-6.25c.87,0,1.57.29,2.12.88.55.58.82,1.31.82,2.17v22.25c0,.47.09.85.28,1.15.18.3.43.52.75.65.32.13.66.2,1.03.2.4,0,.77-.07,1.1-.22.33-.15.72-.23,1.15-.23.47,0,.89.22,1.27.65.38.43.58,1.03.58,1.8,0,.93-.51,1.7-1.53,2.3s-2.11.9-3.27.9c-.7,0-1.48-.06-2.33-.17-.85-.12-1.65-.4-2.4-.85-.75-.45-1.38-1.14-1.88-2.08-.5-.93-.75-2.22-.75-3.85V8.55c0-.87.29-1.59.88-2.17.58-.58,1.31-.88,2.18-.88Z"/><path class="cls-1" d="m237.6,10.75c.87,0,1.58.28,2.15.85.57.57.85,1.3.85,2.2v21.15c0,.87-.28,1.59-.85,2.17-.57.58-1.28.88-2.15.88s-1.58-.29-2.15-.88c-.57-.58-.85-1.31-.85-2.17v-2.45l1.1.45c0,.43-.23.96-.7,1.57-.47.62-1.1,1.23-1.9,1.83-.8.6-1.74,1.11-2.83,1.52-1.08.42-2.26.62-3.53.62-2.3,0-4.38-.59-6.25-1.77-1.87-1.18-3.34-2.82-4.42-4.9-1.08-2.08-1.62-4.48-1.62-7.18s.54-5.14,1.62-7.23c1.08-2.08,2.54-3.72,4.38-4.9,1.83-1.18,3.87-1.77,6.1-1.77,1.43,0,2.75.22,3.95.65,1.2.43,2.24.98,3.12,1.65.88.67,1.57,1.34,2.05,2.03.48.68.73,1.26.73,1.72l-1.8.65v-3.65c0-.87.28-1.59.85-2.17.57-.58,1.28-.88,2.15-.88Zm-10.1,22.25c1.47,0,2.75-.37,3.85-1.1,1.1-.73,1.96-1.73,2.57-3,.62-1.27.93-2.68.93-4.25s-.31-3.03-.93-4.3c-.62-1.27-1.47-2.27-2.57-3-1.1-.73-2.38-1.1-3.85-1.1s-2.7.37-3.8,1.1c-1.1.73-1.96,1.73-2.58,3-.62,1.27-.92,2.7-.92,4.3s.31,2.98.92,4.25c.62,1.27,1.48,2.27,2.58,3,1.1.73,2.37,1.1,3.8,1.1Z"/><path class="cls-1" d="m248.9,11.75h11.85c.8,0,1.47.27,2,.8.53.53.8,1.2.8,2s-.27,1.41-.8,1.93c-.53.52-1.2.77-2,.77h-11.85c-.8,0-1.47-.27-2-.8s-.8-1.2-.8-2,.27-1.41.8-1.93c.53-.52,1.2-.77,2-.77Zm5.35-6.25c.87,0,1.57.29,2.12.88.55.58.82,1.31.82,2.17v22.25c0,.47.09.85.28,1.15.18.3.43.52.75.65.32.13.66.2,1.03.2.4,0,.77-.07,1.1-.22.33-.15.72-.23,1.15-.23.47,0,.89.22,1.27.65.38.43.58,1.03.58,1.8,0,.93-.51,1.7-1.53,2.3s-2.11.9-3.27.9c-.7,0-1.48-.06-2.33-.17-.85-.12-1.65-.4-2.4-.85-.75-.45-1.38-1.14-1.88-2.08-.5-.93-.75-2.22-.75-3.85V8.55c0-.87.29-1.59.88-2.17.58-.58,1.31-.88,2.18-.88Z"/><path class="cls-1" d="m282.9,38.5c-2.83,0-5.29-.59-7.38-1.77-2.08-1.18-3.68-2.79-4.8-4.83-1.12-2.03-1.67-4.33-1.67-6.9,0-3,.61-5.56,1.83-7.67,1.22-2.12,2.81-3.74,4.77-4.88,1.97-1.13,4.05-1.7,6.25-1.7,1.7,0,3.31.35,4.83,1.05,1.52.7,2.86,1.66,4.03,2.88,1.17,1.22,2.09,2.62,2.77,4.23s1.03,3.3,1.03,5.1c-.03.8-.35,1.45-.95,1.95-.6.5-1.3.75-2.1.75h-19.1l-1.5-5h18.35l-1.1,1v-1.35c-.07-.97-.41-1.83-1.02-2.6-.62-.77-1.38-1.38-2.3-1.83-.92-.45-1.89-.67-2.93-.67s-1.93.13-2.8.4c-.87.27-1.62.72-2.25,1.35s-1.13,1.48-1.5,2.55c-.37,1.07-.55,2.42-.55,4.05,0,1.8.38,3.32,1.12,4.57s1.72,2.2,2.9,2.85c1.18.65,2.44.98,3.77.98,1.23,0,2.22-.1,2.95-.3.73-.2,1.33-.44,1.78-.73.45-.28.86-.52,1.22-.73.6-.3,1.17-.45,1.7-.45.73,0,1.34.25,1.83.75.48.5.72,1.08.72,1.75,0,.9-.47,1.72-1.4,2.45-.87.73-2.08,1.38-3.65,1.92-1.57.55-3.18.83-4.85.83Z"/></g></g></svg>